PathFileType	4	(X/Y/Z)	14_coords_data.trc
DataRate	CameraRate	NumFrames	NumMarkers	Units	OrigDataRate	OrigDataStartFrame	OrigNumFrames
30.0	30.0	9	21	m	30.0	11	62
Frame#	Time	THUMB_TIP	THUMB_IP	THUMB_MCP	THUMB_CMC	INDEX_TIP	INDEX_DIP	INDEX_PIP	INDEX_MCP	MIDDLE_TIP	MIDDLE_DIP	MIDDLE_PIP	MIDDLE_MCP	RING_TIP	RING_DIP	RING_PIP	RING_MCP	PINKY_TIP	PINKY_DIP	PINKY_PIP	PINKY_MCP	WRIST
X1	Y1	Z1	X2	Y2	Z2	X3	Y3	Z3	X4	Y4	Z4	X5	Y5	Z5	X6	Y6	Z6	X7	Y7	Z7	X8	Y8	Z8	X9	Y9	Z9	X10	Y10	Z10	X11	Y11	Z11	X12	Y12	Z12	X13	Y13	Z13	X14	Y14	Z14	X15	Y15	Z15	X16	Y16	Z16	X17	Y17	Z17	X18	Y18	Z18	X19	Y19	Z19	X20	Y20	Z20	X21	Y21	Z21
10	0.3333333333333333	-0.043237499237060543	-0.04497079849243164	0.9504429931640626	-0.029204500198364257	-0.024104700088500977	0.9613709716796875	-0.023581199645996094	-0.008147199630737305	0.984958984375	-0.021988500595092775	0.02231170082092285	1.0045900268554688	-0.010844200134277344	0.01728569984436035	0.9731060180664063	0.0046854400634765625	0.02183919906616211	0.9619299926757813	0.005118000030517578	0.024071199417114258	0.9383049926757813	-0.0313213005065918	0.016820499420166016	0.9467329711914062	-0.008078399658203126	0.032832500457763675	0.9799559936523438	0.0035971100330352782	0.03955270004272461	0.9718170166015625	0.007414269924163819	0.046336498260498044	0.9456690063476563	-0.03302140045166015	0.041735698699951175	0.9436300048828125	-0.01582450008392334	0.046605201721191404	0.9883099975585937	-0.002123130083084106	0.05525429916381836	0.9800460205078125	0.002828180074691772	0.06548819732666016	0.957823974609375	-0.03530569839477539	0.062431400299072265	0.9527449951171875	-0.019815799713134765	0.06014189910888672	0.9942509765625	-0.006862770080566407	0.0685279998779297	0.9875560302734375	-0.005496900081634521	0.07805030059814454	0.972114013671875	-0.03502249908447266	0.07799269866943359	0.9654390258789063	-0.044694698333740235	0.04466910171508789	1.0206699829101562
11	0.36666666666666664	-0.04261240005493164	-0.04451020050048828	0.9497860107421875	-0.028670400619506837	-0.023759199142456056	0.9608300170898437	-0.023090700149536132	-0.007777900218963623	0.984458984375	-0.02152549934387207	0.02254549980163574	1.004030029296875	-0.010416500091552735	0.017604000091552736	0.9728560180664062	0.005147749900817871	0.022175100326538084	0.9617930297851562	0.00578233003616333	0.024374000549316405	0.9381220092773438	-0.030820199966430664	0.017224599838256836	0.9463610229492188	-0.007558599948883056	0.033073101043701175	0.97943798828125	0.004008820056915283	0.039844898223876955	0.9716510009765625	0.008078869819641113	0.0466521987915039	0.9456090087890625	-0.032443099975585935	0.04212149810791015	0.9432869873046875	-0.015196100234985351	0.04692449951171875	0.98793798828125	-0.001600510001182556	0.0555802001953125	0.9797109985351562	0.0035848100185394277	0.06571279907226563	0.957614990234375	-0.034678699493408204	0.0627759017944336	0.9523599853515625	-0.019096500396728517	0.0604197998046875	0.9938939819335938	-0.0064003500938415525	0.06887840270996094	0.9873350219726562	-0.004954669952392578	0.0783907012939453	0.9718150024414063	-0.034365798950195314	0.07839520263671874	0.9650989990234375	-0.04412229919433594	0.04503919982910156	1.0200599975585938
12	0.4	-0.04193330001831055	-0.04376409912109375	0.9489879760742187	-0.02801289939880371	-0.022993499755859376	0.9603070068359375	-0.02254960060119629	-0.0071987900733947756	0.984073974609375	-0.020889999389648438	0.023076799392700194	1.0037999877929686	-0.009750129699707032	0.018172500610351562	0.9725889892578125	0.0057151298522949215	0.02274690055847168	0.9613480224609375	0.006133699893951416	0.024891000747680664	0.9376810302734375	-0.030369400024414062	0.01771419906616211	0.9461270141601562	-0.007106480121612549	0.033544498443603514	0.979426025390625	0.004695909976959229	0.040396198272705075	0.9710789794921875	0.008378800392150878	0.04720029830932617	0.9450419921875	-0.03212129974365235	0.042570301055908207	0.9430819702148437	-0.014697099685668945	0.04740340042114258	0.9875560302734375	-0.001112280011177063	0.05610589981079102	0.9791279907226562	0.003890759944915771	0.06626119995117187	0.9570809936523438	-0.03433570098876953	0.06327299880981445	0.9521740112304687	-0.01864609909057617	0.06089860153198242	0.9936680297851562	-0.005735909938812256	0.06934410095214844	0.9868900146484375	-0.004563680171966553	0.07886499786376953	0.9714240112304687	-0.03402880096435547	0.07883910369873047	0.965051025390625	-0.043897300720214846	0.045310298919677736	1.02
13	0.43333333333333335	-0.04150379943847656	-0.04285430145263672	0.9483510131835937	-0.027566400527954102	-0.02208300018310547	0.9596119995117187	-0.022009000778198243	-0.0065442099571228025	0.9835230102539062	-0.020519399642944337	0.023467100143432618	1.0035900268554687	-0.009221980094909668	0.01874799919128418	0.9724249877929687	0.006073860168457032	0.02337019920349121	0.9612949829101562	0.006569439888000488	0.025566099166870117	0.93752001953125	-0.02997319984436035	0.018344999313354492	0.9458499755859375	-0.006528739929199219	0.0342234001159668	0.978760986328125	0.005037290096282959	0.04097890090942383	0.9708480224609375	0.008774020195007325	0.04786050033569336	0.9447260131835937	-0.03165620040893555	0.043190101623535156	0.9428359985351562	-0.01423550033569336	0.04800529861450195	0.9874030151367188	-0.000705114006996154	0.056667198181152345	0.9790989990234376	0.004239719867706299	0.0669540023803711	0.9568720092773437	-0.03397890090942383	0.0638218002319336	0.9521300048828125	-0.018261999130249024	0.061389301300048826	0.9934879760742188	-0.005501580238342285	0.06979360198974609	0.98685498046875	-0.004133699893951416	0.0793656997680664	0.9713170166015626	-0.03366899871826172	0.07940760040283203	0.9649219970703125	-0.04340250015258789	0.045767898559570315	1.0197100219726563
14	0.4666666666666667	-0.041012901306152344	-0.0414640007019043	0.9471680297851562	-0.027062999725341798	-0.020760700225830077	0.9586079711914063	-0.02142180061340332	-0.0055141901969909665	0.9827559814453125	-0.019878999710083008	0.02432509994506836	1.0033400268554689	-0.008492630004882812	0.01983690071105957	0.9718389892578125	0.006722959995269775	0.02466379928588867	0.9605579833984375	0.006949600219726563	0.026962799072265627	0.9371329956054687	-0.0294552001953125	0.019408300399780275	0.9454210205078125	-0.006360499858856201	0.035168598175048825	0.9787050170898437	0.0055103302001953125	0.04226900100708008	0.9705369873046875	0.008946610450744628	0.04929959869384765	0.9447329711914062	-0.03136249923706055	0.044275001525878904	0.9426840209960937	-0.014111499786376953	0.04886090087890625	0.987176025390625	-0.000540669023990631	0.05777899932861328	0.9788419799804687	0.004183040142059326	0.06824659729003907	0.9568670043945312	-0.03375120162963867	0.06486959838867187	0.9519039916992188	-0.018043699264526366	0.06216650009155274	0.9934829711914063	-0.005408339977264405	0.07082579803466797	0.98672802734375	-0.00438040018081665	0.08055220031738282	0.9714439697265626	-0.033747100830078126	0.08027020263671875	0.9649940185546875	-0.04308549880981445	0.04623759841918945	1.019469970703125
15	0.5	-0.04179560089111328	-0.04006079864501953	0.9465499877929687	-0.02739940071105957	-0.019527700424194334	0.9578270263671875	-0.02134980010986328	-0.004468739986419678	0.982155029296875	-0.019648300170898438	0.02507670021057129	1.0029199829101563	-0.008164039611816406	0.020975900650024415	0.9715050048828126	0.00678384017944336	0.025801700592041017	0.960093994140625	0.006963129997253418	0.02832379913330078	0.9365159912109375	-0.02939109992980957	0.020606199264526368	0.9450020141601563	-0.0061979398727417	0.036108699798583985	0.9783900146484374	0.005485089778900146	0.04338069915771484	0.9701409912109376	0.008903389930725097	0.05057389831542969	0.9441290283203125	-0.03135930061340332	0.045493698120117186	0.9424569702148438	-0.01394159984588623	0.04974300003051758	0.9866920166015625	-0.000447780013084411	0.058837600708007816	0.978301025390625	0.004211400032043457	0.06951909637451172	0.9564500122070313	-0.03385969924926758	0.06604560089111328	0.9520560302734375	-0.017695899963378905	0.06298030090332031	0.9929959716796875	-0.005331160068511963	0.07174040222167968	0.98652099609375	-0.004304220199584961	0.0815885009765625	0.9713259887695312	-0.033845500946044924	0.08135790252685547	0.9651519775390625	-0.04296929931640625	0.04697800064086914	1.01925
16	0.5333333333333333	-0.040925098419189454	-0.03929869842529297	0.9459340209960938	-0.02665480041503906	-0.018671100616455077	0.9570659790039062	-0.020761899948120117	-0.003690920114517212	0.9814929809570313	-0.01931719970703125	0.025748699188232423	1.00247998046875	-0.007676509857177735	0.021997699737548827	0.9712100219726563	0.007313630104064941	0.027153299331665038	0.9598519897460938	0.0076045899391174315	0.029804500579833984	0.9362540283203125	-0.0286471004486084	0.021567399978637696	0.9445679931640625	-0.006041810035705566	0.037163501739501954	0.97831298828125	0.00606047010421753	0.04466080093383789	0.9700380249023437	0.00934257984161377	0.05194070053100586	0.9441669921875	-0.03099259948730469	0.04651129913330078	0.942176025390625	-0.013801699638366699	0.05056420135498047	0.9866069946289062	-0.000319779008626937	0.05987820053100586	0.9785050048828124	0.004314099788665772	0.07081400299072266	0.9565289916992188	-0.03355059814453125	0.06700869750976562	0.9517990112304687	-0.017733400344848632	0.06358580017089843	0.9927869873046875	-0.005509500026702881	0.07269349670410157	0.9866430053710937	-0.004356150150299072	0.0827428970336914	0.9715059814453125	-0.03384859848022461	0.0822344970703125	0.9651300048828125	-0.043036201477050784	0.047245800018310545	1.018760009765625
17	0.5666666666666667	-0.04007550048828125	-0.03820790100097656	0.9448280029296875	-0.02590530014038086	-0.01765369987487793	0.9561489868164063	-0.020092100143432618	-0.002992219924926758	0.980625	-0.018785400390625	0.026267299652099608	1.0019400024414062	-0.0070368099212646485	0.022931900024414063	0.970531982421875	0.008275400161743164	0.028268299102783202	0.95947998046875	0.008315150260925292	0.031125900268554687	0.935864013671875	-0.027770999908447266	0.02257390022277832	0.9440709838867187	-0.005397600173950195	0.03805569839477539	0.9780170288085938	0.006653820037841797	0.04563420104980469	0.969781005859375	0.009956029891967774	0.05320640182495117	0.9441500244140625	-0.03029859924316406	0.047532798767089844	0.94193798828125	-0.01341409969329834	0.051314201354980465	0.9865009765625	0.00010071100294589901	0.06071149826049805	0.9785780029296876	0.00469897985458374	0.07198269653320312	0.9567310180664063	-0.03310269927978516	0.0680000991821289	0.9517780151367188	-0.01725670051574707	0.06431009674072266	0.9927689819335938	-0.005172299861907959	0.07345899963378906	0.9867650146484375	-0.004243410110473632	0.08367569732666015	0.971791015625	-0.03362670135498047	0.0830425033569336	0.9653170166015625	-0.04267530059814453	0.04759149932861328	1.018719970703125
18	0.6	-0.039369300842285154	-0.03765800094604492	0.9443800048828125	-0.025198299407958983	-0.01711790084838867	0.9556749877929688	-0.019374500274658202	-0.002458479881286621	0.9804359741210937	-0.01815959930419922	0.02666710090637207	1.001719970703125	-0.0063080301284790035	0.023323400497436524	0.9704619750976563	0.008911569595336915	0.028678600311279296	0.959323974609375	0.009038880348205566	0.03174410057067871	0.935677001953125	-0.027216699600219725	0.023078699111938477	0.9438759765625	-0.004642000198364258	0.03844559860229492	0.977947021484375	0.007318049907684326	0.04612239837646484	0.9696229858398437	0.010540599822998048	0.053807701110839844	0.9439080200195312	-0.02961520004272461	0.04801369857788086	0.9416890258789062	-0.01277690029144287	0.05154309844970703	0.986280029296875	0.000714172005653381	0.061016998291015624	0.9787139892578125	0.005351119995117186	0.07230860137939453	0.9568140258789063	-0.0324541015625	0.06833170318603515	0.9515700073242187	-0.01669070053100586	0.06453630065917969	0.9925679931640625	-0.004517879962921143	0.07377179718017578	0.986656982421875	-0.0037236199378967282	0.08404900360107422	0.9716389770507813	-0.03294599914550781	0.0834167022705078	0.9650609741210937	-0.04215230178833008	0.04784080123901367	1.0184000244140625
